<?xml version="1.0" encoding="UTF-8"?>
<svg xmlns="http://www.w3.org/2000/svg" version="1.1" viewBox="0 0 25.2 25.7">
  <defs>
    <style>
      .cls-1 {
        fill: none;
        stroke: #211032;
        stroke-linecap: round;
        stroke-linejoin: round;
        stroke-width: .9px;
      }
    </style>
  </defs>
  <!-- Generator: Adobe Illustrator 28.7.1, SVG Export Plug-In . SVG Version: 1.2.0 Build 142)  -->
  <g>
    <g id="Layer_1">
      <g id="Layer_1-2" data-name="Layer_1">
        <g id="Home-5">
          <path id="Home-6" class="cls-1" d="M8.6,21.7v-3.3c0-.9.7-1.5,1.5-1.5h3.1c.9,0,1.5.7,1.5,1.5h0v3.4c0,.7.6,1.4,1.3,1.4h2.1c2,0,3.8-1.6,3.8-3.8h0v-9.5c0-.8-.4-1.5-1.1-2l-7.2-5.7c-1.3-1-3-1-4.3,0L2.3,7.9c-.7.5-1.1,1.3-1.1,2v9.5c0,2,1.7,3.8,3.8,3.8h2.1c.8,0,1.4-.6,1.4-1.4h0"/>
        </g>
      </g>
    </g>
  </g>
</svg>