<?xml version="1.0" encoding="UTF-8"?>
<svg xmlns="http://www.w3.org/2000/svg" version="1.1" viewBox="0 0 22.9 23.8">
  <!-- Generator: Adobe Illustrator 28.7.1, SVG Export Plug-In . SVG Version: 1.2.0 Build 142)  -->
  <g>
    <g id="Layer_1">
      <g id="Layer_1-2" data-name="Layer_1">
        <g id="Layer_1-2">
          <path d="M18.8,1c-.1-.1-.5-.1-.6,0L2,17.2h0l-1.1,4.1h0l-.6,1.9v.3h.2c0,.1,6-1.6,6-1.6h0L22.7,5.7c.1-.1.1-.5,0-.6L18.4.9h.3ZM2.7,22.4l-1-1,.9-3.2c.6.5,1.5,1.2,1.8,1.6.3.3,1.1,1.2,1.6,1.8l-3.2.9h-.1ZM6.5,21.1c-.5-.6-1.4-1.6-1.7-2s-1.5-1.2-2-1.7L18.4,1.8l3.7,3.7-15.6,15.6h0Z"/>
        </g>
      </g>
    </g>
  </g>
</svg>